<?xml version="1.0" encoding="UTF-8"?>
<!DOCTYPE svg PUBLIC "-//W3C//DTD SVG 1.1//EN" "http://www.w3.org/Graphics/SVG/1.1/DTD/svg11.dtd">
<svg xmlns="http://www.w3.org/2000/svg" version="1.1" width="1920px" height="1920px" style="shape-rendering:geometricPrecision; text-rendering:geometricPrecision; image-rendering:optimizeQuality; fill-rule:evenodd; clip-rule:evenodd" xmlns:xlink="http://www.w3.org/1999/xlink">
<g><path style="opacity:0.976" fill="#d2e601" d="M 1363.5,325.5 C 1364.55,325.351 1365.55,325.517 1366.5,326C 1411.58,371.816 1457.08,417.316 1503,462.5C 1504.3,464.365 1504.63,466.365 1504,468.5C 1368.97,603.861 1233.64,738.861 1098,873.5C 1096.69,875.641 1095.19,877.641 1093.5,879.5C 1094,880.5 1094.5,881.5 1095,882.5C 1233.33,1020.5 1371.67,1158.5 1510,1296.5C 1512.07,1298.45 1512.74,1300.79 1512,1303.5C 1466.31,1349.53 1420.31,1395.19 1374,1440.5C 1284.69,1352.19 1195.69,1263.53 1107,1174.5C 969.833,1311.67 832.667,1448.83 695.5,1586C 693.833,1586.67 692.167,1586.67 690.5,1586C 645,1540.5 599.5,1495 554,1449.5C 553.333,1448.17 553.333,1446.83 554,1445.5C 691.179,1308.32 828.346,1171.15 965.5,1034C 961.698,1029.03 957.364,1024.53 952.5,1020.5C 950.641,1022.19 948.641,1023.69 946.5,1025C 905.027,1067.23 863.361,1109.23 821.5,1151C 818.967,1152.88 816.467,1154.71 814,1156.5C 813.167,1156.33 812.333,1156.17 811.5,1156C 766.516,1110.74 721.349,1065.57 676,1020.5C 674.699,1018.64 674.365,1016.64 675,1014.5C 720.347,969.32 765.514,923.986 810.5,878.5C 677.18,744.68 543.68,611.014 410,477.5C 409.333,476.5 409.333,475.5 410,474.5C 454.528,430.306 498.694,385.806 542.5,341C 544.455,340.047 546.122,338.713 547.5,337C 548.5,336.333 549.5,336.333 550.5,337C 683.886,470.93 817.386,604.763 951,738.5C 1088.7,600.965 1226.2,463.299 1363.5,325.5 Z M 1363.5,365.5 C 1397.92,398.415 1431.92,431.915 1465.5,466C 1334.33,597.167 1203.17,728.333 1072,859.5C 1038.65,826.081 1005.32,792.748 972,759.5C 971.508,758.451 971.674,757.451 972.5,756.5C 1103.21,626.452 1233.55,496.119 1363.5,365.5 Z M 829.5,899.5 C 863.916,932.415 897.916,965.915 931.5,1000C 892.374,1039.29 853.04,1078.46 813.5,1117.5C 779.68,1084.18 746.014,1050.68 712.5,1017C 751.701,977.965 790.701,938.799 829.5,899.5 Z M 985.5,1054.5 C 1019.42,1086.91 1052.92,1119.91 1086,1153.5C 1086.67,1154.17 1086.67,1154.83 1086,1155.5C 955,1286.5 824,1417.5 693,1548.5C 659.5,1515 626,1481.5 592.5,1448C 723.701,1316.97 854.701,1185.8 985.5,1054.5 Z"/></g>
</svg>
